Coordinates
version=1
nRows=10
nColumns=22
inDegrees=yes

Units are S.I. units (second, meters, Newtons, ...)
If the header above contains a line with 'inDegrees', this indicates whether rotational values are in degrees (yes) or radians (no).

endheader
time	pelvis_tilt	pelvis_list	pelvis_rotation	pelvis_tx	pelvis_ty	pelvis_tz	hip_flexion_r	hip_adduction_r	hip_rotation_r	knee_angle_r	ankle_angle_r	subtalar_angle_r	hip_flexion_l	hip_adduction_l	hip_rotation_l	knee_angle_l	ankle_angle_l	subtalar_angle_l	lumbar_extension	lumbar_bending	lumbar_rotation
      4.26000000	      3.05543604	      3.93515528	    171.94843895	     -0.06937758	      0.97702400	     -0.60895449	    -11.43028973	     -3.98969665	    -10.24851839	    -29.56734032	     -3.30825621	     21.52259463	     27.75854417	     -8.99630404	    -36.84801020	    -20.83355364	      2.90951736	    -11.52199520	      1.18292249	     -5.84404894	      4.35366438
      4.27000000	      2.98280386	      3.69429005	    172.52725179	     -0.08201693	      0.97861056	     -0.60483801	    -10.71621525	     -4.64554205	    -10.20639179	    -31.61533571	     -5.76125668	     21.69140044	     27.44041748	     -8.29262007	    -35.87754609	    -21.41440335	      2.48539937	    -12.02793655	      1.33256944	     -6.10377701	      4.03122426
      4.28000000	      2.85196642	      3.48066449	    173.16094358	     -0.09434533	      0.98026732	     -0.60052836	     -9.92773309	     -5.27500168	    -10.17275728	    -33.84274905	     -8.07724635	     21.82250365	     27.06404955	     -7.55269952	    -34.77014390	    -21.95966115	      2.18923428	    -12.39799184	      1.34982302	     -6.33678415	      3.70640364
      4.29000000	      2.67719064	      3.29431763	    173.80256900	     -0.10637320	      0.98193344	     -0.59609856	     -9.05344019	     -5.86581210	    -10.06718118	    -36.22534120	    -10.17696003	     21.83960948	     26.60433227	     -6.80262316	    -33.66286737	    -22.42354759	      2.09310752	    -12.97522434	      1.26525237	     -6.52771729	      3.38944472
      4.30000000	      2.46471160	      3.12816982	    174.46103461	     -0.11807930	      0.98358668	     -0.59155991	     -8.10719668	     -6.41339733	     -9.90030101	    -38.71481768	    -11.93841403	     21.92716400	     26.06730854	     -6.04216793	    -32.56935147	    -22.80467179	      2.12004562	    -13.41184571	      1.08661703	     -6.68627717	      3.07769705
      4.31000000	      2.22735658	      2.99016854	    175.09604781	     -0.12947820	      0.98520283	     -0.58699701	     -7.08366376	     -6.89740381	     -9.63020099	    -41.25786474	    -13.33093122	     21.97768062	     25.45190705	     -5.31259693	    -31.59359958	    -23.10171320	      2.27126709	    -13.93339019	      0.84116472	     -6.79767043	      2.80467309
      4.32000000	      1.98749269	      2.87304814	    175.70453878	     -0.14056902	      0.98676213	     -0.58244954	     -5.97490537	     -7.30450922	     -9.24254884	    -43.79526462	    -14.28763213	     21.98872626	     24.77818010	     -4.60736156	    -30.70843721	    -23.30049261	      2.50673176	    -14.37933705	      0.56562455	     -6.87111255	      2.55786276
      4.33000000	      1.74693245	      2.78302231	    176.26772158	     -0.15138747	      0.98827863	     -0.57799368	     -4.79584569	     -7.61454875	     -8.72541110	    -46.25679292	    -14.84249508	     21.90258557	     24.04771997	     -3.95497317	    -29.96086440	    -23.41650731	      2.86472822	    -14.74662379	      0.27542717	     -6.90509770	      2.34830665
      4.34000000	      1.54298129	      2.69723488	    176.77189027	     -0.16190284	      0.98971884	     -0.57364583	     -3.51148634	     -7.84102749	     -8.07235100	    -48.61232173	    -14.88387801	     21.56104328	     23.29418482	     -3.32390427	    -29.30578648	    -23.41487953	      3.19316525	    -15.19663215	      0.01890918	     -6.92300804	      2.20686882
      4.35000000	      1.35535898	      2.62535306	    177.23553717	     -0.17219634	      0.99112730	     -0.56942064	     -2.17200752	     -7.98245583	     -7.34693412	    -50.80002046	    -14.55789341	     21.06728591	     22.51017658	     -2.73628688	    -28.76840589	    -23.33988719	      3.61284251	    -15.50554093	     -0.21280950	     -6.92446849	      2.08108154
